<?xml version="1.0" encoding="iso-8859-1"?>
<!-- Uploaded to: SVG Repo, www.svgrepo.com, Generator: SVG Repo Mixer Tools -->
<svg height="800px" width="800px" version="1.1" id="Capa_1" xmlns="http://www.w3.org/2000/svg" xmlns:xlink="http://www.w3.org/1999/xlink" 
	 viewBox="0 0 46.846 46.846" xml:space="preserve">
<g>
	<path style="fill:#010002;" d="M13.067,15.612H6.061c-1.171,0-2.125,0.953-2.125,2.125v13.914c0,1.172,0.953,2.125,2.125,2.125
		h7.006V15.612z M10.817,31.526H6.186V17.862h4.631V31.526z M42.811,0.957c0.187-0.289,0.104-0.677-0.186-0.864
		c-0.283-0.179-0.684-0.092-0.863,0.186L36.85,7.86V5.403c0-1.498-0.967-2.18-1.864-2.18c-0.473,0-0.947,0.17-1.41,0.505
		L17.493,15.333c-1.117,0.805-1.959,2.45-1.959,3.827v10.671c0,1.367,0.824,3.019,1.917,3.844l1.796,1.352l-7.033,10.855
		c-0.187,0.289-0.104,0.676,0.186,0.864c0.103,0.065,0.22,0.1,0.339,0.1c0.213,0,0.409-0.106,0.524-0.285l6.985-10.78l13.329,10.031
		c0.472,0.354,0.953,0.534,1.433,0.534h0.001c0.577,0,1.1-0.271,1.436-0.744c0.267-0.378,0.402-0.857,0.402-1.422V32.159
		c2.666-1.427,4.362-4.185,4.362-7.25c0-3.067-1.696-5.824-4.362-7.25v-7.501L42.811,0.957z M34.6,43.764l-13.124-9.877L34.6,13.631
		V43.764z M34.6,11.332L20.474,33.134l-1.668-1.256c-0.525-0.396-1.021-1.39-1.021-2.047V19.16c0-0.648,0.498-1.622,1.025-2.003
		L34.6,5.763V11.332z M36.85,20.026c1.467,1.165,2.362,2.943,2.362,4.883c0,1.938-0.894,3.716-2.362,4.882V20.026z"/>
</g>
</svg>